<?xml version="1.0" encoding="UTF-8"?>
<!DOCTYPE svg PUBLIC "-//W3C//DTD SVG 1.1//EN" "http://www.w3.org/Graphics/SVG/1.1/DTD/svg11.dtd">
<svg xmlns="http://www.w3.org/2000/svg" version="1.1" width="3147px" height="3375px" style="shape-rendering:geometricPrecision; text-rendering:geometricPrecision; image-rendering:optimizeQuality; fill-rule:evenodd; clip-rule:evenodd" xmlns:xlink="http://www.w3.org/1999/xlink">
<g><path style="opacity:0.998" fill="#9b1de7" d="M 1568.5,-0.5 C 1569.5,-0.5 1570.5,-0.5 1571.5,-0.5C 1935.1,209.64 2298.77,419.806 2662.5,630C 2298.35,840.491 1933.85,1050.32 1569,1259.5C 1211.15,1055.16 853.654,850.158 496.5,644.5C 853.851,429.473 1211.18,214.473 1568.5,-0.5 Z"/></g>
<g><path style="opacity:0.999" fill="#9b1de7" d="M -0.5,726.5 C 2.01632,726.755 4.34965,727.589 6.5,729C 500.082,1014.37 993.582,1299.87 1487,1585.5C 1511.05,1917.53 1535.38,2249.53 1560,2581.5C 1563.11,2271.83 1566.11,1962.17 1569,1652.5C 1569.17,1646.47 1569.67,1640.47 1570.5,1634.5C 2033.36,1364.9 2497.36,1097.06 2962.5,831C 3023.73,796.223 3085.06,761.723 3146.5,727.5C 3146.5,774.167 3146.5,820.833 3146.5,867.5C 3145.59,1395.33 3144.59,1923.33 3143.5,2451.5C 2619.61,2758.94 2095.94,3066.61 1572.5,3374.5C 1570.83,3374.5 1569.17,3374.5 1567.5,3374.5C 1443.57,3294.53 1319.24,3215.03 1194.5,3136C 1136.33,3101.75 1078,3067.75 1019.5,3034C 1006.42,3026.63 992.753,3020.63 978.5,3016C 960.08,3010.03 941.747,3010.36 923.5,3017C 859.755,3041.47 796.088,3066.14 732.5,3091C 548.625,3165.63 363.958,3238.29 178.5,3309C 148.167,3320 117.833,3331 87.5,3342C 82.5827,3343.98 77.5827,3345.31 72.5,3346C 101.51,3282.48 132.01,3219.65 164,3157.5C 219.264,3053.25 274.931,2949.25 331,2845.5C 358.616,2792.6 385.449,2739.27 411.5,2685.5C 407.043,2682.1 402.377,2678.93 397.5,2676C 318.664,2629.75 239.664,2583.75 160.5,2538C 107.101,2507.64 53.4346,2477.8 -0.5,2448.5C -0.5,1874.5 -0.5,1300.5 -0.5,726.5 Z M 2469.5,1940.5 C 2524.54,1941.25 2561.71,1967.25 2581,2018.5C 2593.81,2074.45 2576.31,2117.95 2528.5,2149C 2484.62,2170.34 2443.28,2166.34 2404.5,2137C 2366.69,2102.26 2355.86,2060.43 2372,2011.5C 2390.89,1969.11 2423.39,1945.44 2469.5,1940.5 Z"/></g>
</svg>
