<?xml version="1.0" encoding="UTF-8"?>
<!DOCTYPE svg PUBLIC "-//W3C//DTD SVG 1.1//EN" "http://www.w3.org/Graphics/SVG/1.1/DTD/svg11.dtd">
<svg xmlns="http://www.w3.org/2000/svg" version="1.1" width="500px" height="500px" style="shape-rendering:geometricPrecision; text-rendering:geometricPrecision; image-rendering:optimizeQuality; fill-rule:evenodd; clip-rule:evenodd" xmlns:xlink="http://www.w3.org/1999/xlink">
<g><path style="opacity:1" fill="#d18973" d="M 350.5,210.5 C 326.994,210.169 303.661,210.502 280.5,211.5C 234.499,211.333 188.499,211.5 142.5,212C 130.236,215.93 122.403,224.097 119,236.5C 118.5,289.166 118.333,341.832 118.5,394.5C 117.334,308.001 117.168,221.334 118,134.5C 118.205,127.959 120.372,122.293 124.5,117.5C 125.906,117.027 126.573,116.027 126.5,114.5C 127.891,112.11 129.891,110.443 132.5,109.5C 134.027,109.573 135.027,108.906 135.5,107.5C 138.422,105.469 141.755,104.302 145.5,104C 214.833,103.333 284.167,103.333 353.5,104C 367.008,106.505 375.841,114.338 380,127.5C 381.598,145.456 381.931,163.456 381,181.5C 378.586,195.916 370.419,205.416 356.5,210C 354.527,210.495 352.527,210.662 350.5,210.5 Z M 170.5,153.5 C 223.168,153.333 275.834,153.5 328.5,154C 331.167,156.667 331.167,159.333 328.5,162C 275.833,162.667 223.167,162.667 170.5,162C 167.899,159.17 167.899,156.337 170.5,153.5 Z"/></g>
<g><path style="opacity:0.58" fill="#eed3ca" d="M 135.5,107.5 C 135.027,108.906 134.027,109.573 132.5,109.5C 132.973,108.094 133.973,107.427 135.5,107.5 Z"/></g>
<g><path style="opacity:0.388" fill="#efd3ca" d="M 126.5,114.5 C 126.573,116.027 125.906,117.027 124.5,117.5C 124.427,115.973 125.094,114.973 126.5,114.5 Z"/></g>
<g><path style="opacity:0.484" fill="#e7c4b8" d="M 280.5,211.5 C 303.661,210.502 326.994,210.169 350.5,210.5C 329.167,211.167 307.833,211.833 286.5,212.5C 284.5,212.167 282.5,211.833 280.5,211.5 Z"/></g>
<g><path style="opacity:1" fill="#bf626b" d="M 280.5,211.5 C 282.5,211.833 284.5,212.167 286.5,212.5C 298.243,216.413 305.743,224.413 309,236.5C 309.667,255.167 309.667,273.833 309,292.5C 304.834,307.001 295.334,315.501 280.5,318C 255.833,318.333 231.167,318.667 206.5,319C 199.574,320.307 193.24,322.974 187.5,327C 164.633,350.375 141.633,372.875 118.5,394.5C 118.333,341.832 118.5,289.166 119,236.5C 122.403,224.097 130.236,215.93 142.5,212C 188.499,211.5 234.499,211.333 280.5,211.5 Z M 266.5,269.5 C 234.877,270.485 203.21,270.819 171.5,270.5C 167.565,266.996 167.565,263.496 171.5,260C 202.5,259.333 233.5,259.333 264.5,260C 268.42,262.573 269.087,265.739 266.5,269.5 Z"/></g>
<g><path style="opacity:0.491" fill="#deaeb3" d="M 266.5,269.5 C 266.389,270.117 266.056,270.617 265.5,271C 233.997,271.831 202.664,271.664 171.5,270.5C 203.21,270.819 234.877,270.485 266.5,269.5 Z"/></g>
</svg>
